<?xml version="1.0" encoding="UTF-8"?>
<svg width="24px" height="24px" viewBox="0 0 24 24" version="1.1" xmlns="http://www.w3.org/2000/svg" xmlns:xlink="http://www.w3.org/1999/xlink">
    <title>Menu/ico-logout</title>
    <g id="Menu/ico-logout" stroke="none" stroke-width="1" fill="none" fill-rule="evenodd">
        <g id="Group" transform="translate(1.000000, 0.000000)" fill="#8491A3" fill-rule="nonzero">
            <path d="M18,0 L10.2857143,0 L10.2857143,1.71428571 L18,1.71428571 C18.4733869,1.71428571 18.8571429,2.09804164 18.8571429,2.57142857 L18.8571429,21.4285714 C18.8571429,21.9019584 18.4733869,22.2857143 18,22.2857143 L10.2857143,22.2857143 L10.2857143,24 L18,24 C19.4201608,24 20.5714286,22.8487322 20.5714286,21.4285714 L20.5714286,2.57142857 C20.5714286,1.15126779 19.4201608,0 18,0 L18,0 Z" id="Path"></path>
            <path d="M10.2857143,17.4857143 L14.5714286,13.2 C15.2360976,12.5313644 15.2360976,11.4514928 14.5714286,10.7828571 L10.2857143,6.49714286 L9.04285714,7.71428571 L12.4714286,11.1428571 L1.49213975e-13,11.1428571 L1.49213975e-13,12.8571429 L12.5057143,12.8571429 L9.07714286,16.2857143 L10.2857143,17.4857143 Z" id="Path"></path>
        </g>
    </g>
</svg>