<?xml version="1.0" encoding="UTF-8"?>
<svg width="24px" height="24px" viewBox="0 0 24 24" version="1.1" xmlns="http://www.w3.org/2000/svg" xmlns:xlink="http://www.w3.org/1999/xlink">
    <title>Menu/ico-education</title>
    <g id="Menu/ico-education" stroke="none" stroke-width="1" fill="none" fill-rule="evenodd">
        <g id="iconfinder_play-video-videos-multimedia-media_3643741" transform="translate(0.000000, 1.000000)" fill="#8491A3" fill-rule="nonzero">
            <path d="M23.2,22.4 L0.8,22.4 C0.3581722,22.4 0,22.0418278 0,21.6 L0,0.8 C0,0.3581722 0.3581722,0 0.8,0 L23.2,0 C23.6418278,0 24,0.3581722 24,0.8 L24,21.6 C24,22.0418278 23.6418278,22.4 23.2,22.4 Z M1.6,20.8 L22.4,20.8 L22.4,1.6 L1.6,1.6 L1.6,20.8 Z" id="Shape"></path>
            <path d="M8.8,16.8 C8.6625694,16.7995795 8.52756454,16.7637618 8.408,16.696 C8.15641047,16.5545807 8.00049736,16.2886113 8,16 L8,6.4 C8,6.11255611 8.15430629,5.84723478 8.40408081,5.7049791 C8.65385533,5.56272341 8.96074813,5.56540361 9.208,5.712 L17.208,10.512 C17.4508692,10.6561101 17.5997648,10.917594 17.5997648,11.2 C17.5997648,11.482406 17.4508692,11.7438899 17.208,11.888 L9.208,16.688 C9.08451546,16.7612714 8.94358668,16.8 8.8,16.8 L8.8,16.8 Z M9.6,7.816 L9.6,14.584 L15.248,11.2 L9.6,7.816 Z" id="Shape"></path>
        </g>
    </g>
</svg>