<?xml version="1.0" encoding="UTF-8"?>
<svg width="24px" height="24px" viewBox="0 0 24 24" version="1.1" xmlns="http://www.w3.org/2000/svg" xmlns:xlink="http://www.w3.org/1999/xlink">
    <title>Menu/ico-accounts</title>
    <g id="Menu/ico-accounts" stroke="none" stroke-width="1" fill="none" fill-rule="evenodd">
        <g id="iconfinder_outlined_briefcase_4280516" transform="translate(0.000000, 1.000000)" fill="#8491A3" fill-rule="nonzero">
            <path d="M21.4285714,3.42857143 L16.2857143,3.42857143 L16.2857143,1.71428571 C16.2857143,0.767511857 15.5182024,0 14.5714286,0 L9.42857143,0 C8.48179757,0 7.71428571,0.767511857 7.71428571,1.71428571 L7.71428571,3.42857143 L2.57142857,3.42857143 C1.15126779,3.42857143 0,4.57983921 0,6 L0,21.4285714 L24,21.4285714 L24,6 C24,4.57983921 22.8487322,3.42857143 21.4285714,3.42857143 Z M9.42857143,1.71428571 L14.5714286,1.71428571 L14.5714286,3.42857143 L9.42857143,3.42857143 L9.42857143,1.71428571 Z M22.2857143,19.7142857 L1.71428571,19.7142857 L1.71428571,10.2857143 L3.42857143,10.2857143 L3.42857143,13.7142857 L8.57142857,13.7142857 L8.57142857,10.2857143 L15.4285714,10.2857143 L15.4285714,13.7142857 L20.5714286,13.7142857 L20.5714286,10.2857143 L22.2857143,10.2857143 L22.2857143,19.7142857 Z M5.14285714,10.2857143 L6.85714286,10.2857143 L6.85714286,12 L5.14285714,12 L5.14285714,10.2857143 Z M17.1428571,10.2857143 L18.8571429,10.2857143 L18.8571429,12 L17.1428571,12 L17.1428571,10.2857143 Z M20.5714286,8.57142857 L1.71428571,8.57142857 L1.71428571,6 C1.71428571,5.52661307 2.09804164,5.14285714 2.57142857,5.14285714 L21.4285714,5.14285714 C21.9019584,5.14285714 22.2857143,5.52661307 22.2857143,6 L22.2857143,8.57142857 L20.5714286,8.57142857 Z" id="Shape"></path>
        </g>
    </g>
</svg>