<?xml version="1.0" encoding="UTF-8"?>
<svg width="24px" height="24px" viewBox="0 0 24 24" version="1.1" xmlns="http://www.w3.org/2000/svg" xmlns:xlink="http://www.w3.org/1999/xlink">
    <title>Menu/ico-tools</title>
    <g id="Menu/ico-tools" stroke="none" stroke-width="1" fill="none" fill-rule="evenodd">
        <g id="iconfinder_Settings_5349756" transform="translate(2.000000, 2.000000)" fill="#8491A3" fill-rule="nonzero">
            <path d="M7,6.66666667 C7,5.11666667 5.88,3.81666667 4.375,3.45 L4.375,0.833333333 C4.375,0.366666667 3.99,0 3.5,0 C3.01,0 2.625,0.366666667 2.625,0.833333333 L2.625,3.45 C1.12,3.81666667 0,5.11666667 0,6.66666667 C0,8.21666667 1.12,9.51666667 2.625,9.88333333 L2.625,19.1666667 C2.625,19.6333333 3.01,20 3.5,20 C3.99,20 4.375,19.6333333 4.375,19.1666667 L4.375,9.88333333 C5.88,9.51666667 7,8.21666667 7,6.66666667 Z M3.5,8.33333333 C2.5375,8.33333333 1.75,7.58333333 1.75,6.66666667 C1.75,5.75 2.5375,5 3.5,5 C4.4625,5 5.25,5.75 5.25,6.66666667 C5.25,7.58333333 4.4625,8.33333333 3.5,8.33333333 Z" id="Shape"></path>
            <path d="M11.375,11.7833333 L11.375,0.833333333 C11.375,0.366666667 10.99,0 10.5,0 C10.01,0 9.625,0.366666667 9.625,0.833333333 L9.625,11.7833333 C8.12,12.15 7,13.45 7,15 C7,16.55 8.12,17.85 9.625,18.2166667 L9.625,19.1666667 C9.625,19.6333333 10.01,20 10.5,20 C10.99,20 11.375,19.6333333 11.375,19.1666667 L11.375,18.2166667 C12.88,17.85 14,16.55 14,15 C14,13.45 12.88,12.15 11.375,11.7833333 Z M10.5,16.6666667 C9.5375,16.6666667 8.75,15.9166667 8.75,15 C8.75,14.0833333 9.5375,13.3333333 10.5,13.3333333 C11.4625,13.3333333 12.25,14.0833333 12.25,15 C12.25,15.9166667 11.4625,16.6666667 10.5,16.6666667 Z" id="Shape"></path>
            <path d="M20,5 C20,3.45 18.88,2.15 17.375,1.78333333 L17.375,0.833333333 C17.375,0.366666667 16.99,0 16.5,0 C16.01,0 15.625,0.366666667 15.625,0.833333333 L15.625,1.78333333 C14.12,2.15 13,3.45 13,5 C13,6.55 14.12,7.85 15.625,8.21666667 L15.625,19.1666667 C15.625,19.6333333 16.01,20 16.5,20 C16.99,20 17.375,19.6333333 17.375,19.1666667 L17.375,8.21666667 C18.88,7.85 20,6.55 20,5 Z M16.5,6.66666667 C15.5375,6.66666667 14.75,5.91666667 14.75,5 C14.75,4.08333333 15.5375,3.33333333 16.5,3.33333333 C17.4625,3.33333333 18.25,4.08333333 18.25,5 C18.25,5.91666667 17.4625,6.66666667 16.5,6.66666667 Z" id="Shape"></path>
        </g>
    </g>
</svg>