<?xml version="1.0" encoding="UTF-8"?>
<svg width="24px" height="24px" viewBox="0 0 24 24" version="1.1" xmlns="http://www.w3.org/2000/svg" xmlns:xlink="http://www.w3.org/1999/xlink">
    <title>Menu/ico-profile</title>
    <g id="Menu/ico-profile" stroke="none" stroke-width="1" fill="none" fill-rule="evenodd">
        <g id="iconfinder_outlined_account_4280505" fill="#8491A3" fill-rule="nonzero">
            <path d="M19.3846154,12.9230769 L4.61538462,12.9230769 C2.06637808,12.9230769 0,14.989455 0,17.5384615 L0,24 L1.84615385,24 L1.84615385,17.5384615 C1.84615385,16.0090576 3.08598069,14.7692308 4.61538462,14.7692308 L19.3846154,14.7692308 C20.9140193,14.7692308 22.1538462,16.0090576 22.1538462,17.5384615 L22.1538462,24 L24,24 L24,17.5384615 C24,14.989455 21.9336219,12.9230769 19.3846154,12.9230769 Z" id="Path"></path>
            <path d="M12,11.0769231 C15.0588078,11.0769231 17.5384615,8.59726938 17.5384615,5.53846154 C17.5384615,2.47965369 15.0588078,0 12,0 C8.94119215,0 6.46153846,2.47965369 6.46153846,5.53846154 C6.46153846,8.59726938 8.94119215,11.0769231 12,11.0769231 Z M12,1.84615385 C14.0392052,1.84615385 15.6923077,3.49925631 15.6923077,5.53846154 C15.6923077,7.57766677 14.0392052,9.23076923 12,9.23076923 C9.96079477,9.23076923 8.30769231,7.57766677 8.30769231,5.53846154 C8.30769231,3.49925631 9.96079477,1.84615385 12,1.84615385 Z" id="Shape"></path>
        </g>
    </g>
</svg>