<?xml version="1.0" encoding="UTF-8"?>
<svg width="24px" height="24px" viewBox="0 0 24 24" version="1.1" xmlns="http://www.w3.org/2000/svg" xmlns:xlink="http://www.w3.org/1999/xlink">
    <title>Menu/ico-dashboard</title>
    <g id="Menu/ico-dashboard" stroke="none" stroke-width="1" fill="none" fill-rule="evenodd">
        <g id="iconfinder_outlined_home_4280459" transform="translate(0.000000, 1.000000)" fill="#8491A3" fill-rule="nonzero">
            <path d="M13.696,0.704 C12.7452692,-0.198103033 11.2547308,-0.198103033 10.304,0.704 L0.232,10.768 L1.368,11.904 L3.2,10.072 L3.2,20 C3.2,21.3254834 4.2745166,22.4 5.6,22.4 L18.4,22.4 C19.7254834,22.4 20.8,21.3254834 20.8,20 L20.8,10.072 L22.632,11.904 L23.768,10.768 L13.696,0.704 Z M10.4,20.8 L10.4,15.2 L13.6,15.2 L13.6,20.8 L10.4,20.8 Z M19.2,20 C19.2,20.4418278 18.8418278,20.8 18.4,20.8 L15.2,20.8 L15.2,13.6 L8.8,13.6 L8.8,20.8 L5.6,20.8 C5.1581722,20.8 4.8,20.4418278 4.8,20 L4.8,8.472 L11.432,1.832 C11.5822133,1.68054988 11.78669,1.59536134 12,1.59536134 C12.21331,1.59536134 12.4177867,1.68054988 12.568,1.832 L19.2,8.472 L19.2,20 Z" id="Shape"></path>
        </g>
    </g>
</svg>