<?xml version="1.0" encoding="UTF-8"?>
<svg width="24px" height="24px" viewBox="0 0 24 24" version="1.1" xmlns="http://www.w3.org/2000/svg" xmlns:xlink="http://www.w3.org/1999/xlink">
    <title>Menu/ico-terms</title>
    <g id="Menu/ico-terms" stroke="none" stroke-width="1" fill="none" fill-rule="evenodd">
        <g id="iconfinder_outlined_info_4280462" fill="#8491A3" fill-rule="nonzero">
            <path d="M12,0 C5.372583,0 0,5.372583 0,12 C0,18.627417 5.372583,24 12,24 C18.627417,24 24,18.627417 24,12 C24,8.81740212 22.7357179,5.76515517 20.4852814,3.51471863 C18.2348448,1.26428208 15.1825979,0 12,0 Z M12,22.2857143 C6.31935686,22.2857143 1.71428571,17.6806431 1.71428571,12 C1.71428571,6.31935686 6.31935686,1.71428571 12,1.71428571 C17.6806431,1.71428571 22.2857143,6.31935686 22.2857143,12 C22.2857143,14.727941 21.2020439,17.3441527 19.2730983,19.2730983 C17.3441527,21.2020439 14.727941,22.2857143 12,22.2857143 Z" id="Shape"></path>
            <polygon id="Path" points="9.42857143 12 11.1428571 12 11.1428571 18.8571429 12.8571429 18.8571429 12.8571429 10.2857143 9.42857143 10.2857143"></polygon>
            <circle id="Oval" cx="12" cy="6.85714286" r="1.71428571"></circle>
        </g>
    </g>
</svg>