<svg xmlns="http://www.w3.org/2000/svg" xmlns:xlink="http://www.w3.org/1999/xlink" viewBox="0 0 161 125" fit="" height="100%" width="100%" preserveAspectRatio="xMidYMid meet" focusable="false">
<defs><clipPath id="clip-Artboard_3"><rect width="161" height="125"></rect></clipPath></defs><g id="Artboard_3" data-name="Artboard â&#147; 3" clip-path="url(#clip-Artboard_3)"><g id="mortarboard_1_" data-name="mortarboard (1)" transform="translate(2.999 -55.192)"><g id="Group_1449" data-name="Group 1449" transform="translate(0.001 60.192)">
<path fill="#788597" id="Path_423" data-name="Path 423" d="M153.818,95.087a2.566,2.566,0,0,0-1.3-1.3L78.071,60.417a2.567,2.567,0,0,0-2.1,0L1.521,93.791a2.567,2.567,0,0,0,0,4.688L25.676,109.3v45.877a2.567,2.567,0,0,0,.914,1.964,78.129,78.129,0,0,0,100.862,0,2.567,2.567,0,0,0,.914-1.964V109.3l10.269-4.6v44.575l-3.851,5.761a7.674,7.674,0,0,0-1.284,4.272v2.975a7.7,7.7,0,1,0,15.4,0V159.3a7.673,7.673,0,0,0-1.284-4.272l-3.851-5.753V102.4l8.752-3.923A2.568,2.568,0,0,0,153.818,95.087Zm-30.587,58.888a73,73,0,0,1-92.421,0v-42.36l45.16,20.245a2.568,2.568,0,0,0,2.1,0l45.16-20.253Zm20.538,8.3a2.567,2.567,0,1,1-5.134,0V159.3a2.55,2.55,0,0,1,.431-1.422l2.136-3.212,2.136,3.2a2.55,2.55,0,0,1,.431,1.422Zm-4.025-63.7L77.226,93.568a2.575,2.575,0,0,0-.411,5.135L130,102.956,77.021,126.685,8.848,96.135l68.173-30.55,68.173,30.55Z" transform="translate(-0.001 -60.192)"></path></g></g></g></svg>