<svg xmlns="http://www.w3.org/2000/svg" viewBox="0 0 480 390" fit="" height="100%" width="100%" preserveAspectRatio="xMidYMid meet" focusable="false">
    <g id="newspaper-folded_1_" data-name="newspaper-folded (1)" transform="translate(0 -26)">
        <path fill="#788597" id="Path_433" data-name="Path 433" d="M70.86,336H180.543c6,0,10.86,4.477,10.86,10s-4.862,10-10.86,10H70.86c-6,0-10.86-4.477-10.86-10S64.862,336,70.86,336Z" transform="translate(223.439)">
        </path>
        <path fill="#788597" id="Path_434" data-name="Path 434" d="M221.86,336H331.543c6,0,10.86,4.477,10.86,10s-4.862,10-10.86,10H221.86c-6,0-10.86-4.477-10.86-10S215.863,336,221.86,336Z" transform="translate(-91.543)">
        </path>
        <path fill="#788597" id="Path_435" data-name="Path 435" d="M70.86,86H344.525c6,0,10.86,4.477,10.86,10s-4.862,10-10.86,10H70.86c-6,0-10.86-4.477-10.86-10S64.863,86,70.86,86Z" transform="translate(59.457)">
        </path>
        <path fill="#788597" id="Path_436" data-name="Path 436" d="M221.86,136H331.543c6,0,10.86,4.477,10.86,10s-4.862,10-10.86,10H221.86c-6,0-10.86-4.477-10.86-10S215.863,136,221.86,136Z" transform="translate(-91.543)">
        </path>
        <path fill="#788597" id="Path_437" data-name="Path 437" d="M221.86,186H331.543c6,0,10.86,4.477,10.86,10s-4.862,10-10.86,10H221.86c-6,0-10.86-4.477-10.86-10S215.863,186,221.86,186Z" transform="translate(-91.543)">
        </path>
        <path fill="#788597" id="Path_438" data-name="Path 438" d="M221.86,236H331.543c6,0,10.86,4.477,10.86,10s-4.862,10-10.86,10H221.86c-6,0-10.86-4.477-10.86-10S215.863,236,221.86,236Z" transform="translate(-91.543)">
        </path>
        <path fill="#788597" id="Path_439" data-name="Path 439" d="M221.86,286H331.543c6,0,10.86,4.477,10.86,10s-4.862,10-10.86,10H221.86c-6,0-10.86-4.477-10.86-10S215.863,286,221.86,286Z" transform="translate(-91.543)">
        </path>
        <path fill="#788597" id="Path_440" data-name="Path 440" d="M70.86,286H180.543c6,0,10.86,4.477,10.86,10s-4.862,10-10.86,10H70.86c-6,0-10.86-4.477-10.86-10S64.862,286,70.86,286Z" transform="translate(223.439)">
        </path>
        <path fill="#788597" id="Path_441" data-name="Path 441" d="M70.86,136H180.543c6,0,10.86,4.477,10.86,10V247c0,5.523-4.862,10-10.86,10H70.86c-6,0-10.86-4.477-10.86-10V146C60,140.477,64.862,136,70.86,136Zm10.86,101h87.964V156H81.719Z" transform="translate(223.439)">
        </path>
        <path fill="#788597" id="Path_442" data-name="Path 442" d="M21.719,76H54.3V46c0-11.028,9.743-20,21.719-20H458.281C470.257,26,480,34.972,480,46V366c0,27.57-24.358,50-54.3,50H54.3C24.358,416,0,393.57,0,366V96C0,84.972,9.743,76,21.719,76Zm0,290c0,16.542,14.615,30,32.579,30H425.7c17.964,0,32.579-13.458,32.579-30V46H76.018V351c0,13.785-12.179,25-27.149,25-6,0-10.86-4.477-10.86-10s4.863-10,10.86-10a5.234,5.234,0,0,0,5.43-5V96H21.719Z" transform="translate(0)">
        </path>
    </g>
</svg>